<?xml version="1.0" standalone="no"?>
<!DOCTYPE svg PUBLIC "-//W3C//DTD SVG 20010904//EN"
 "http://www.w3.org/TR/2001/REC-SVG-20010904/DTD/svg10.dtd">
<svg version="1.0" xmlns="http://www.w3.org/2000/svg"
 width="512.000000pt" height="512.000000pt" viewBox="0 0 512.000000 512.000000"
 preserveAspectRatio="xMidYMid meet" style="border:1px solid black">

<g transform="translate(0.000000,512.000000) scale(0.100000,-0.100000)"
fill="#000000" stroke="none">
<path d="M0 4480 l0 -640 635 0 635 0 0 -635 0 -635 -635 0 c-417 0 -635 -3
-635 -10 0 -7 219 -10 638 -10 l639 0 6 -112 c4 -62 7 -346 7 -630 l0 -518
-645 0 c-423 0 -645 -3 -645 -10 0 -7 222 -10 645 -10 l645 0 0 -635 c0 -417
3 -635 10 -635 7 0 10 218 10 635 l0 635 620 0 620 0 0 -635 c0 -417 3 -635
10 -635 7 0 10 218 10 635 l0 635 630 0 630 0 0 -635 0 -635 645 0 645 0 0
645 0 645 -635 0 -635 0 0 630 0 630 635 0 c417 0 635 3 635 10 0 7 -218 10
-635 10 l-635 0 0 640 0 640 635 0 c417 0 635 3 635 10 0 7 -218 10 -635 10
l-635 0 0 625 c0 410 -3 625 -10 625 -7 0 -10 -215 -10 -625 l0 -625 -630 0
-630 0 0 625 c0 410 -3 625 -10 625 -7 0 -10 -215 -10 -625 l0 -625 -625 0
-625 0 0 625 0 625 -650 0 -650 0 0 -640z m3830 -1270 l0 -640 -630 0 -630 0
0 640 0 640 630 0 630 0 0 -640z m-1280 -1290 l0 -630 -620 0 -620 0 0 518 c0
284 -3 568 -7 630 l-6 112 626 0 627 0 0 -630z"/>
</g>
</svg>
